<svg width="54" height="9" viewBox="0 0 54 9" fill="none" xmlns="http://www.w3.org/2000/svg">
<path d="M0.703125 9C0.488281 9 0.380859 8.91211 0.380859 8.73633V8.45508C0.380859 8.26758 0.439453 8.09375 0.556641 7.93359L5.16211 1.57031V1.54688C5.00586 1.55469 4.84961 1.55859 4.69336 1.55859H0.890625C0.675781 1.55859 0.568359 1.4707 0.568359 1.29492V0.861328C0.568359 0.685547 0.675781 0.597656 0.890625 0.597656H6.29297C6.50781 0.597656 6.61523 0.685547 6.61523 0.861328V1.04297C6.61523 1.17188 6.57617 1.29102 6.49805 1.40039L1.83398 8.02734V8.05078C1.93945 8.04297 2.0957 8.03906 2.30273 8.03906H6.42188C6.63672 8.03906 6.74414 8.12695 6.74414 8.30273V8.73633C6.74414 8.91211 6.63672 9 6.42188 9H0.703125ZM7.69922 9C7.49609 9 7.44336 8.87109 7.54102 8.61328L10.459 0.955078C10.5488 0.716797 10.6777 0.597656 10.8457 0.597656H11.666C11.834 0.597656 11.9629 0.716797 12.0527 0.955078L14.9707 8.61328C15.0684 8.87109 15.0156 9 14.8125 9H14.2148C14.0078 9 13.8672 8.9043 13.793 8.71289L13.0605 6.77344H9.45117L8.71875 8.71289C8.64453 8.9043 8.50391 9 8.29688 9H7.69922ZM9.82031 5.8125H12.6914L11.7949 3.46875C11.7129 3.25 11.6309 3.00781 11.5488 2.74219C11.4707 2.47656 11.377 2.09961 11.2676 1.61133H11.2441C11.1348 2.09961 11.0391 2.47656 10.957 2.74219C10.8789 3.00781 10.7988 3.25 10.7168 3.46875L9.82031 5.8125ZM16.3828 9C16.1875 9 16.0898 8.89258 16.0898 8.67773V0.919922C16.0898 0.705078 16.1875 0.597656 16.3828 0.597656H19.2129C20.3418 0.597656 21.1582 0.808594 21.6621 1.23047C22.1699 1.65234 22.4238 2.20898 22.4238 2.90039C22.4238 3.50977 22.2188 4.02148 21.8086 4.43555C21.4023 4.84961 20.8223 5.08789 20.0684 5.15039V5.16211C20.4668 5.45898 20.7305 5.68555 20.8594 5.8418C20.9883 5.99414 21.1328 6.20117 21.293 6.46289L22.6172 8.61328C22.7773 8.87109 22.7422 9 22.5117 9H21.8438C21.6602 9 21.5234 8.92383 21.4336 8.77148L20.2148 6.67969C20.0391 6.37891 19.7871 6.08398 19.459 5.79492C19.1309 5.50586 18.7227 5.36133 18.2344 5.36133H17.2148V8.67773C17.2148 8.89258 17.1172 9 16.9219 9H16.3828ZM17.2148 4.40039H18.9082C19.6699 4.40039 20.2559 4.30078 20.666 4.10156C21.0762 3.89844 21.2812 3.47461 21.2812 2.83008C21.2812 2.33789 21.0938 2.00391 20.7188 1.82812C20.3438 1.64844 19.834 1.55859 19.1895 1.55859H17.2148V4.40039ZM23.7949 1.60547C23.5801 1.60547 23.4727 1.51758 23.4727 1.3418V0.861328C23.4727 0.685547 23.5801 0.597656 23.7949 0.597656H29.9941C30.209 0.597656 30.3164 0.685547 30.3164 0.861328V1.3418C30.3164 1.51758 30.209 1.60547 29.9941 1.60547H27.457V8.67773C27.457 8.89258 27.3594 9 27.1641 9H26.625C26.4297 9 26.332 8.89258 26.332 8.67773V1.60547H23.7949ZM31.0605 1.60547C30.8457 1.60547 30.7383 1.51758 30.7383 1.3418V0.861328C30.7383 0.685547 30.8457 0.597656 31.0605 0.597656H37.2598C37.4746 0.597656 37.582 0.685547 37.582 0.861328V1.3418C37.582 1.51758 37.4746 1.60547 37.2598 1.60547H34.7227V8.67773C34.7227 8.89258 34.625 9 34.4297 9H33.8906C33.6953 9 33.5977 8.89258 33.5977 8.67773V1.60547H31.0605ZM39.082 9C38.8867 9 38.7891 8.89258 38.7891 8.67773V0.919922C38.7891 0.705078 38.8867 0.597656 39.082 0.597656H44.209C44.4238 0.597656 44.5312 0.685547 44.5312 0.861328V1.29492C44.5312 1.4707 44.4238 1.55859 44.209 1.55859H39.9141V4.16016H43.8574C44.0723 4.16016 44.1797 4.24805 44.1797 4.42383V4.85742C44.1797 5.0332 44.0723 5.12109 43.8574 5.12109H39.9141V8.03906H44.3848C44.5996 8.03906 44.707 8.12695 44.707 8.30273V8.73633C44.707 8.91211 44.5996 9 44.3848 9H39.082ZM45.9609 9C45.707 9 45.6719 8.87109 45.8555 8.61328L48.668 4.66406L46.0547 0.984375C45.8711 0.726562 45.9062 0.597656 46.1602 0.597656H46.8809C47.0527 0.597656 47.1895 0.673828 47.291 0.826172L49.3477 3.88477L51.4043 0.826172C51.5059 0.673828 51.6426 0.597656 51.8145 0.597656H52.5352C52.7891 0.597656 52.8242 0.726562 52.6406 0.984375L50.0273 4.66406L52.8398 8.61328C53.0234 8.87109 52.9883 9 52.7344 9H52.0078C51.8359 9 51.6992 8.92383 51.5977 8.77148L49.3477 5.44336L47.0977 8.77148C46.9961 8.92383 46.8594 9 46.6875 9H45.9609Z" fill="#1F83F7"/>
</svg>
